<svg xmlns="http://www.w3.org/2000/svg" width="194" height="77" viewBox="0 0 194 77" fill="none"><path fill-rule="evenodd" clip-rule="evenodd" d="M9.96617 41.8241C11.3891 41.3522 12.8518 41.1696 14.3097 41.2468L14.3099 41.2496L14.3367 41.4725L14.3646 41.6946L14.372 41.7511L14.1575 41.9601L13.9145 42.2134L13.6794 42.4752L13.5259 42.6583L12.9425 42.6805L12.3052 42.7443L11.6709 42.8481L11.0405 42.9922L10.415 43.1778L9.80169 43.4029L9.21023 43.6637L8.63996 43.9596L8.09055 44.2892L7.56239 44.6521L7.05617 45.0467L6.57186 45.4731L6.10958 45.93L5.66962 46.4169L5.25359 46.9318L4.86114 47.475L4.49322 48.0448L4.15059 48.6401L3.83423 49.2595L3.54395 49.9021L3.28154 50.5671L3.04657 51.2529L2.84074 51.9579L2.66423 52.6809L2.51756 53.4206L2.4013 54.1765L2.31671 54.9455L2.26365 55.7272L2.2433 56.5209L2.25557 57.3243L2.30176 58.1361L2.38184 58.9553L2.49679 59.7803L2.64651 60.6103L2.83223 61.4428L3.0539 62.2773L3.31269 63.113L3.60471 63.9381L3.92573 64.7402L4.27424 65.5189L4.65 66.2736L5.051 67.004L5.47619 67.7085L5.92405 68.387L6.39441 69.0386L6.88474 69.663L7.39443 70.2583L7.9218 70.8249L8.46622 71.3609L9.02573 71.8667L9.59934 72.3407L10.1856 72.7828L10.7837 73.1923L11.3918 73.5685L12.0084 73.9108L12.6321 74.2187L13.2627 74.4911L13.898 74.7285L14.5368 74.9292L15.1783 75.0936L15.8223 75.2208L16.4658 75.3116L17.1088 75.3636L17.7506 75.3779L18.391 75.353L19.0284 75.2894L19.6623 75.1857L20.2925 75.0412L20.9192 74.8552L21.532 74.6304L22.1233 74.3698L22.6934 74.0742L23.2429 73.7442L23.7705 73.382L24.2768 72.987L24.7615 72.5606L25.2239 72.1036L25.6633 71.6171L26.0798 71.1017L26.4721 70.5587L26.84 69.9892L27.1823 69.394L27.4994 68.774L27.7893 68.1313L28.0522 67.4664L28.2863 66.781L28.4923 66.0756L28.6691 65.3527L28.8157 64.613L28.9315 63.8577L29.0165 63.0885L29.0693 62.3065L29.0902 61.5126L29.0774 60.7098L29.0313 59.8976L28.9512 59.0785L28.8367 58.2532L28.6868 57.4238L28.5013 56.5906L28.2796 55.7559L28.0212 54.92L27.729 54.096L27.4082 53.2938L27.0591 52.5152L26.6836 51.7602L26.2825 51.0304L25.8572 50.3252L25.409 49.6466L24.9393 48.9951L24.4487 48.3714L23.9391 47.7758L23.4114 47.2096L22.8672 46.6732L22.3074 46.1677L21.7336 45.6931L21.1471 45.2508L20.5499 44.8411L19.9419 44.4654L19.3252 44.1229L18.701 43.8153L18.0707 43.5426L17.6936 43.4021L17.606 42.9737L18.4897 42.1758C23.207 44.0299 27.3911 48.49 29.3745 54.4713C32.5225 63.9648 28.9371 73.699 21.3679 76.2089C13.7987 78.7188 5.10757 73.0553 1.95955 63.5618C-1.18837 54.0682 2.39702 44.334 9.96617 41.8241ZM13.5438 49.7893L13.6391 49.7857L13.8553 49.7906L14.0872 49.8095L14.3234 49.8423L14.5741 49.8921L14.8404 49.9603L15.1201 50.0485L15.4097 50.1563L15.7086 50.2858L16.0192 50.4387L16.3052 50.5975L16.2675 50.663L16.102 50.9713L15.9469 51.2827L15.8015 51.5973L15.6657 51.9144L15.5394 52.2341L15.423 52.5549L15.3162 52.8767L15.2188 53.1987L15.1304 53.5215L15.0518 53.8438L14.9824 54.1647L14.9221 54.4844L14.8711 54.803L14.8297 55.1185L14.7972 55.4312L14.774 55.7405L14.7601 56.047L14.7554 56.3488L14.7601 56.6465L14.774 56.9384L14.7971 57.2261L14.8303 57.5074L14.8726 57.7826L14.925 58.0515L14.9874 58.3137L15.0604 58.5684L15.1438 58.8154L15.2384 59.0538L15.8962 60.4851L16.7958 59.0909L16.9648 58.8187L17.1293 58.5467L17.2898 58.2767L17.4477 58.0095L17.6037 57.7469L17.7585 57.4897L17.9125 57.2403L18.0672 56.9989L18.2225 56.7675L18.3791 56.5477L18.5374 56.3404L18.6972 56.1472C19.0063 55.6528 20.047 55.1416 20.3012 54.9432L20.3683 55.0652L20.6146 55.5604L20.8452 56.0751L21.0596 56.6114L21.2561 57.1646L21.4283 57.7228L21.5765 58.281L21.6998 58.8327L21.7977 59.3767L21.8727 59.9153L21.9241 60.4453L21.9538 60.969L21.9621 61.4751L21.9487 61.9726L21.9164 62.4584L21.8649 62.926L21.795 63.3798L21.7095 63.8132L21.6078 64.2279L21.4909 64.6277L21.3624 65.0034L21.2236 65.3554L21.075 65.6844L20.9175 65.9928L20.754 66.2767L20.5865 66.536L20.416 66.7718L20.2432 66.9856L20.0701 67.1774L19.8986 67.3472L19.7277 67.4975L19.5583 67.6295L19.389 67.7457L19.2158 67.8497L19.0424 67.9395L18.8652 68.0177L18.6755 68.0874L18.4798 68.1455L18.2903 68.1888L18.0978 68.2203L17.8982 68.2403L17.6931 68.2483L17.4759 68.2432L17.2508 68.225L17.0113 68.1913L16.7524 68.1404L16.4907 68.0734L16.2168 67.9872L15.9255 67.8783L15.6247 67.7484L15.3165 67.5961L14.9968 67.4188L14.6739 67.219L14.346 66.9946L14.017 66.7464L13.6881 66.4746L13.3576 66.1758L13.032 65.8554L12.7121 65.5112L12.3962 65.1425L12.088 64.7502L11.7894 64.3366L11.5031 63.9027L11.2277 63.4466L10.9662 62.9701L10.7196 62.4748L10.4892 61.9592L10.2747 61.4241L10.0785 60.8696L9.904 60.3063L9.75653 59.7515L9.63435 59.2027L9.5358 58.6555L9.46052 58.1164L9.40897 57.5865L9.37898 57.0658L9.37085 56.5585L9.38406 56.06L9.41667 55.5753L9.46785 55.1092L9.53763 54.6572L9.62476 54.2188L9.72641 53.802L9.84121 53.4086L9.9703 53.0323L10.1104 52.6774L10.2588 52.348L10.416 52.0403L10.5787 51.7577L10.7461 51.4985L10.9177 51.2611L10.9234 51.2541L11.0694 52.2372L12.3276 51.0306L12.5559 50.8038L12.78 50.5759L12.9999 50.3492L13.2165 50.1246L13.4302 49.9046L13.5438 49.7893ZM19.9213 54.2822L19.928 54.2933L19.914 54.299L19.9234 54.2927L19.9213 54.2822ZM18.8074 48.8419L19.0821 49.049L19.5103 49.4033L19.9322 49.7843L20.3452 50.1911L20.7493 50.6248L21.1423 51.0841L21.5233 51.5683L21.8893 52.076L22.2408 52.6084L22.5766 53.1653L22.8944 53.743L23.1924 54.3425L23.4705 54.9628L23.7274 55.6054L23.9621 56.2668L24.169 56.9362L24.3464 57.6046L24.4945 58.2691L24.6132 58.9275L24.7041 59.5805L24.767 60.2262L24.8033 60.8652L24.8134 61.4901L24.7969 62.106L24.7564 62.7099L24.6914 63.2989L24.6034 63.873L24.4934 64.4289L24.3615 64.9676L24.209 65.4892L24.0383 65.9884L23.8499 66.4654L23.6447 66.9204L23.4231 67.3534L23.1884 67.7615L22.9408 68.1451L22.6814 68.5041L22.4111 68.8383L22.1318 69.1476L21.8442 69.4323L21.5473 69.6933L21.243 69.9308L20.9305 70.1451L20.6065 70.3396L20.2747 70.5117L19.932 70.6627L19.5732 70.7943L19.2049 70.9039L18.8386 70.9877L18.4705 71.0477L18.0956 71.0854L17.7155 71.1001L17.329 71.0913L16.9369 71.0599L16.5358 71.0033L16.1233 70.9217L15.709 70.8158L15.2889 70.6835L14.8605 70.5234L14.4274 70.3364L13.9933 70.122L13.5551 69.8791L13.1178 69.6084L12.6817 69.3097L12.2498 68.9842L11.823 68.6313L11.4013 68.2499L10.9881 67.8433L10.5848 67.41L10.1918 66.9508L9.81071 66.4658L9.44318 65.9566L9.09232 65.4252L8.75702 64.8697L8.43957 64.2913L8.14145 63.6923L7.86372 63.0716L7.60675 62.4298L7.37244 61.7672L7.16412 61.0949L6.98653 60.4278L6.83906 59.7654L6.72021 59.1055L6.629 58.452L6.56612 57.8065L6.52961 57.1698L6.51988 56.5435L6.53586 55.9267L6.57665 55.3238L6.64126 54.7362L6.72985 54.1622L6.84052 53.6037L6.97187 53.0646L7.12333 52.5461L7.29476 52.046L7.48382 51.5675L7.6888 51.1129L7.90968 50.6803L8.14427 50.2726L8.3923 49.8887L8.65232 49.5291L8.92126 49.196L9.20102 48.8865L9.48993 48.6008L9.78581 48.3404L10.0898 48.1034L10.4034 47.8879L10.7259 47.6943L11.0594 47.5215L11.0681 47.5176L11.048 47.5963L10.9777 47.9074L10.9173 48.2169L10.8669 48.5243L10.8275 48.8284L10.7985 49.1291L10.7838 49.3697L10.6958 49.4383L10.4627 49.6433L10.2315 49.872L10.0054 50.1223L9.78501 50.3951L9.56921 50.6937L9.36155 51.0151L9.1629 51.3602L8.97375 51.7304L8.7971 52.1226L8.63263 52.5392L8.48234 52.9773L8.34916 53.4333L8.23271 53.9111L8.13374 54.4096L8.05446 54.9227L7.99666 55.4497L7.96005 55.9933L7.94539 56.5509L7.95432 57.1179L7.98745 57.6965L8.04474 58.2842L8.12801 58.8805L8.23671 59.4841L8.37153 60.0897L8.53403 60.7004L8.72544 61.3184L8.94086 61.9271L9.17639 62.5154L9.43053 63.0833L9.70282 63.6307L9.9923 64.1582L10.2978 64.6639L10.6161 65.1466L10.9493 65.608L11.294 66.0467L11.6485 66.4607L12.0099 66.8492L12.3794 67.2129L12.7556 67.5529L13.1333 67.8653L13.5139 68.1521L13.8958 68.4138L14.2762 68.649L14.6549 68.8589L15.026 69.0424L15.3931 69.2008L15.7527 69.3353L16.1 69.4447L16.4381 69.531L16.7735 69.5972L17.0938 69.6424L17.4023 69.6673L17.704 69.6742L17.9968 69.663L18.2843 69.6341L18.5645 69.5883L18.8423 69.5248L19.1243 69.4408L19.3987 69.3402L19.6585 69.2257L19.9112 69.0947L20.1599 68.9454L20.4007 68.7801L20.6376 68.5954L20.8715 68.3897L21.1009 68.1625L21.3272 67.9121L21.5487 67.6381L21.7637 67.3406L21.9712 67.019L22.1703 66.6731L22.3598 66.3024L22.5369 65.9103L22.7003 65.4958L22.8498 65.0586L22.9846 64.5978L23.1015 64.121L23.1992 63.6264L23.2782 63.1125L23.3364 62.584L23.3729 62.0392L23.3877 61.4825L23.3785 60.917L23.3456 60.3359L23.2883 59.748L23.2054 59.1521L23.0972 58.551L22.9614 57.9427L22.7986 57.3296L22.6091 56.7157L22.3935 56.1083L22.1579 55.5191L21.9036 54.9514L21.6313 54.4041L21.3414 53.8771L21.0352 53.3693L20.7161 52.8858L20.3846 52.4262L20.0401 51.9884L19.686 51.5744L19.3232 51.1851L19.278 51.1406L18.8074 48.8419ZM15.0127 48.5332L15.2315 48.5892L15.583 48.7L15.9418 48.8334L16.12 48.9106L16.0586 48.7438L15.9866 48.5464L15.9161 48.3477L15.8457 48.1479L15.839 48.1279L15.7316 48.1769L15.5903 48.2408L15.4553 48.3021L15.2456 48.4001L15.0548 48.5064L15.0127 48.5332ZM10.8638 44.5313L11.4023 44.3716L11.9452 44.2476L12.4634 44.1626L12.4535 44.1786L12.2799 44.4793L12.1149 44.7839L11.959 45.0915L11.8124 45.4013L11.6749 45.7132L11.6449 45.7863L11.3123 45.885L10.8691 46.0475L10.443 46.2357L10.0305 46.4494L9.63251 46.6883L9.24726 46.953L8.87587 47.2426L8.5174 47.5583L8.17049 47.901L7.83721 48.2698L7.51939 48.6634L7.21539 49.0841L6.92727 49.5299L6.65668 50.0003L6.40371 50.495L6.17048 51.0124L5.95708 51.553L5.76445 52.115L5.59485 52.6957L5.44847 53.2962L5.32591 53.9148L5.22788 54.5495L5.15659 55.1978L5.11185 55.8601L5.09442 56.5359L5.10495 57.2215L5.14461 57.9165L5.21322 58.6197L5.31247 59.3305L5.44156 60.0469L5.60181 60.7663L5.79416 61.4891L6.01916 62.2157L6.27264 62.9325L6.55104 63.6279L6.85236 64.3011L7.17634 64.952L7.52165 65.5812L7.88688 66.1862L8.27016 66.7667L8.67206 67.3234L9.08955 67.855L9.52137 68.3594L9.96603 68.8371L10.4229 69.2869L10.8904 69.7096L11.3664 70.103L11.8495 70.4674L12.3397 70.803L12.8342 71.1089L13.3318 71.3851L13.829 71.6303L14.3279 71.8459L14.825 72.0319L15.3183 72.1869L15.8085 72.3124L16.2977 72.4089L16.7798 72.4772L17.2556 72.5154L17.7271 72.526L18.1941 72.5079L18.6563 72.4616L19.1131 72.3872L19.5675 72.2829L20.0217 72.1479L20.4652 71.9854L20.8911 71.7977L21.3023 71.5843L21.7013 71.3448L22.0854 71.0812L22.457 70.7912L22.8166 70.4751L23.1626 70.133L23.4952 69.7647L23.8141 69.37L24.118 68.9495L24.4056 68.5041L24.6763 68.0337L24.9295 67.5383L25.163 67.0206L25.3763 66.4809L25.5681 65.9199L25.7382 65.3373L25.8853 64.7369L26.0074 64.1196L26.1048 63.4851L26.1765 62.836L26.2211 62.1728L26.239 61.4976L26.228 60.8134L26.1885 60.1167L26.1199 59.4132L26.0211 58.7028L25.8921 57.9873L25.7314 57.2667L25.5393 56.5428L25.3151 55.8177L25.0612 55.1023L24.7831 54.4065L24.4814 53.7334L24.1574 53.082L23.8119 52.4536L23.4463 51.8475L23.0625 51.2662L22.6618 50.7105L22.2445 50.1799L21.8126 49.6751L21.367 49.1971L20.9105 48.7472L20.4427 48.3248L19.966 47.9303L19.4819 47.5652L18.9937 47.2305L18.4999 46.9252L18.4041 46.872L18.0374 45.0812L18.1026 45.1095L18.6639 45.386L19.221 45.6954L19.7717 46.0357L20.3145 46.4079L20.8499 46.8117L21.375 47.2461L21.889 47.7103L22.3892 48.2034L22.8759 48.7255L23.3465 49.2756L23.8005 49.8527L24.2358 50.4564L24.6517 51.0863L25.0472 51.742L25.4204 52.421L25.7702 53.1241L26.0956 53.8502L26.3951 54.5991L26.6681 55.3688L26.9096 56.1495L27.1163 56.9287L27.2894 57.7055L27.4289 58.478L27.5356 59.2458L27.6099 60.0071L27.6527 60.7616L27.6647 61.5052L27.6451 62.2396L27.5965 62.9623L27.518 63.6714L27.4116 64.3661L27.2772 65.0449L27.1153 65.7065L26.9271 66.3506L26.7142 66.9736L26.4762 67.576L26.2146 68.156L25.9292 68.7139L25.6229 69.2466L25.295 69.754L24.9471 70.2358L24.5793 70.6908L24.1932 71.1182L23.7891 71.5177L23.3669 71.8891L22.928 72.2316L22.4722 72.5445L21.9979 72.8292L21.5072 73.0837L20.9986 73.3079L20.4704 73.5016L19.9301 73.662L19.3878 73.7864L18.8423 73.8755L18.2927 73.9304L17.7389 73.952L17.1824 73.9395L16.6228 73.8943L16.0598 73.8149L15.4936 73.7031L14.9275 73.5581L14.3615 73.3803L13.7952 73.1685L13.2306 72.9245L12.6702 72.648L12.113 72.3387L11.5618 71.9977L11.0175 71.6251L10.4828 71.2218L9.95804 70.7881L9.44454 70.3239L8.94391 69.831L8.45786 69.3089L7.98707 68.7589L7.53321 68.1811L7.0971 67.5769L6.68149 66.9474L6.28637 66.2925L5.9131 65.6127L5.56332 64.91L5.23855 64.1842L4.93854 63.4353L4.66597 62.6644L4.4241 61.8832L4.21695 61.1046L4.04392 60.3284L3.90458 59.5554L3.79748 58.7876L3.72328 58.0264L3.68023 57.2731L3.66876 56.5284L3.68785 55.7935L3.73658 55.0717L3.81463 54.3629L3.92174 53.6676L4.05628 52.9885L4.21775 52.3268L4.40558 51.684L4.61936 51.0601L4.85714 50.4573L5.11904 49.8773L5.40359 49.3203L5.71022 48.7874L6.03834 48.2794L6.38656 47.7975L6.75339 47.3433L7.1401 46.9156L7.54439 46.5158L7.96588 46.1446L8.40494 45.8025L8.86149 45.4888L9.33528 45.2046L9.8266 44.9499L10.3354 44.7253L10.8638 44.5313Z" fill="url(#paint0_linear_234_517)"></path><path fill-rule="evenodd" clip-rule="evenodd" d="M6.62262 41.1804L42.1637 7.39726C48.3179 1.54742 55.9253 0.339645 61.9275 2.68092C61.6764 2.5845 61.4294 2.49482 61.1853 2.41211L52.1713 10.3268L51.8077 12.0908L62.0667 2.73553C65.9992 4.31213 69.2271 7.4207 70.8764 11.7544C72.895 17.0586 72.8585 23.2587 69.0388 27.5174L50.9636 47.6717L52.0481 46.4623C52.6495 45.1436 53.2526 43.8024 53.853 42.4657C56.7011 36.1251 59.5074 29.8774 63.3127 23.8044C65.9471 19.5988 67.6325 15.1565 67.7122 12.1625C67.744 10.9519 67.5148 9.95773 66.9843 9.28045C66.4309 8.57446 65.5789 8.22356 64.3893 8.33705C62.4555 8.52155 59.5556 9.97959 55.4941 13.2394C51.64 16.3324 47.9474 19.5948 44.2709 22.8425C36.7521 29.4851 29.3001 36.0681 20.7033 40.9865L20.9149 41.0906L21.4084 41.3652L20.9143 41.0908L20.1393 40.7086L19.3496 40.3673L18.5488 40.0687L17.7364 39.813L16.9145 39.6026L16.083 39.4371L15.2448 39.3199L14.4019 39.2514L13.5561 39.2329L12.7071 39.2651L11.859 39.3504L11.0135 39.4884L10.1731 39.6807L9.33787 39.928L8.52089 40.2284L7.73148 40.5767L6.97122 40.9713L6.62262 41.1804ZM50.4235 48.2736L33.0212 67.6775L33.4039 67.2509L33.7374 66.1166L33.7766 65.9932L33.7753 65.9928C33.9677 65.3936 35.0347 62.0695 35.6663 61.1185L35.6667 61.1187L35.6757 61.1052C36.8944 59.3046 38.7517 57.2277 40.6967 55.0524C44.249 51.0796 48.0927 46.7793 49.0289 43.0815L49.0307 43.0798L49.0313 43.0756L49.03 43.0754C49.2022 42.3925 49.2828 41.6461 49.3649 40.8856C49.5129 39.5126 49.6665 38.089 50.3659 37.1006H50.3667L50.3764 37.0878L50.3762 37.0874C50.9592 36.2712 51.5344 35.5063 52.0924 34.7641C54.1866 31.9789 56.0502 29.5004 57.1837 25.8874C57.5366 24.7637 57.6839 23.846 57.6202 23.1574C57.5719 22.6356 57.4026 22.2307 57.1113 21.9509C56.8131 21.6649 56.4052 21.524 55.887 21.5368C55.3172 21.5511 54.5976 21.7581 53.7269 22.1698C47.9277 24.915 42.9907 28.8506 38.0184 32.8145C33.4754 36.4364 28.9011 40.0819 23.6344 42.8393L23.8569 43.0069L24.2452 43.3284C29.4523 40.5586 33.9732 36.9555 38.4639 33.3753C43.406 29.4354 48.3128 25.5237 54.0321 22.8166C54.8102 22.4484 55.4336 22.2641 55.9053 22.2521C56.222 22.2441 56.4587 22.3176 56.6148 22.4675C56.7776 22.6238 56.8744 22.8782 56.9065 23.2232C56.9618 23.8169 56.8237 24.6415 56.4999 25.6746C55.404 29.1679 53.5747 31.6002 51.5192 34.3338C50.9562 35.0827 50.3758 35.8547 49.791 36.6735L49.7897 36.6749L49.7803 36.688L49.7817 36.6884C48.974 37.8307 48.8101 39.348 48.6521 40.8114C48.5726 41.5513 48.494 42.2779 48.3364 42.9024H48.3349L48.3338 42.9067L48.3349 42.9072C47.4423 46.4324 43.6577 50.6652 40.1613 54.5763C38.199 56.771 36.3257 58.8664 35.0804 60.7038L35.0723 60.7173L35.0713 60.72C34.3867 61.7475 33.2908 65.1611 33.094 65.7744L33.0925 65.7745L33.0651 65.8612L33.0644 65.8609L33.0564 65.8885C32.7607 66.8147 32.4757 67.7156 32.202 68.5909L30.4231 70.5745L30.5857 70.2564H30.5858L30.7816 69.8222L30.9435 69.4636L31.265 68.6494L31.5508 67.8145L31.8001 66.9612L32.013 66.0909L32.1884 65.2051L32.327 64.304L32.4274 63.3906L32.4902 62.4649L32.5139 61.53L32.4996 60.5851L32.4454 59.6336L32.3519 58.6753L32.2177 57.7128L32.0432 56.7464L31.9344 56.2579C32.5412 55.6013 33.1567 54.9627 33.7714 54.3247C35.4599 52.5723 37.1434 50.825 38.6424 48.7126C40.9976 45.3925 41.1021 44.8941 41.7319 41.8832L41.8453 41.3428H41.8458C42.3198 39.0941 46.0769 36.3222 48.4351 34.5822L48.4346 34.5816C48.845 34.2791 49.2155 34.0053 49.4709 33.8087L49.475 33.8067L49.4789 33.8035C51.1079 32.5541 51.9385 31.7458 52.2113 31.2673L52.2103 31.2665C52.5481 30.674 52.3716 30.36 51.8272 30.2626C51.5409 30.2116 51.0906 30.281 50.545 30.4343C48.756 30.9374 45.6836 32.3979 44.2463 33.3879C41.1892 35.4937 38.3088 37.9643 35.4316 40.4319C32.8481 42.6483 30.2662 44.8621 27.5673 46.7997L27.0966 46.2008L26.4933 45.4962L25.8668 44.8239L25.2179 44.1842L24.5477 43.5784L23.8565 43.0073L23.1474 42.4723L22.4187 41.9732L21.6748 41.5131L21.4439 41.3849C29.942 36.4549 37.3105 29.9464 44.7438 23.3796C48.4131 20.1378 52.0997 16.8811 55.9422 13.7975C59.8847 10.6336 62.6517 9.22279 64.4549 9.0507C65.3777 8.96287 66.0216 9.21344 66.4211 9.723C66.8428 10.2613 67.0232 11.0981 66.9956 12.1441C66.9193 15.0154 65.2753 19.3195 62.7045 23.423C58.8811 29.5252 56.0616 35.8022 53.2003 42.1718C52.3054 44.1657 51.4054 46.168 50.4235 48.2736ZM31.7329 55.4219L31.5702 54.8096L31.2704 53.8429L30.9332 52.8889L30.5606 51.9584L30.1552 51.053L29.7176 50.1737L29.2501 49.3226L28.7527 48.4981L28.2271 47.7027L27.9109 47.264L27.9928 47.3775C30.7098 45.4256 33.304 43.2012 35.8994 40.9751C38.7606 38.5208 41.6253 36.0635 44.6535 33.9778C46.0422 33.0216 49.0108 31.6104 50.7391 31.1241C51.0837 31.027 51.3668 30.9689 51.5581 30.9621C51.2955 31.3752 50.5255 32.0979 49.04 33.2372L49.0361 33.2403L49.0324 33.2432C48.7027 33.4955 48.3733 33.7392 48.0102 34.0069H48.0087C45.5659 35.8095 41.6746 38.6805 41.1445 41.195V41.1963L41.031 41.7383C40.4279 44.6205 40.3275 45.0975 38.0584 48.2968C36.5891 50.3676 34.9243 52.0956 33.2548 53.8283C32.7463 54.3557 32.2372 54.8833 31.7329 55.4219Z" fill="url(#paint1_linear_234_517)"></path><path fill-rule="evenodd" clip-rule="evenodd" d="M57.0061 40.934C56.9256 41.216 56.8423 41.4958 56.7551 41.7719C56.8928 41.8771 57.0254 41.9822 57.1627 42.0864C57.6456 42.4828 58.3243 42.2784 58.9305 42.3039C58.3203 43.8464 56.8452 45.2969 55.4695 45.2945C55.1371 46.0843 54.7794 46.8536 54.396 47.6127C54.5132 47.778 54.6246 47.936 54.7415 48.0936C55.148 48.682 55.8405 48.7204 56.4207 48.9739C55.5623 50.3762 53.8764 51.3684 52.5379 50.8588C52.074 51.5667 51.5903 52.2599 51.0801 52.922C51.1619 53.1417 51.2427 53.3552 51.324 53.5621C51.6133 54.3451 52.2849 54.6447 52.8131 55.1395C51.7182 56.33 49.8766 56.7647 48.6508 55.7058C48.0701 56.3019 47.4648 56.8651 46.8385 57.3907C46.874 57.6616 46.9148 57.9265 46.9558 58.1826C47.0826 59.1506 47.6878 59.7391 48.1147 60.4687C46.8027 61.3649 44.8953 61.1327 43.9123 59.4961C43.221 59.9216 42.5182 60.3024 41.7855 60.6444C41.7708 60.9576 41.7557 61.2646 41.7408 61.5783C41.6703 62.6922 42.1544 63.572 42.4249 64.5457C40.9447 65.0489 39.1021 64.0614 38.468 61.8544C38.3714 61.8798 38.2745 61.904 38.1777 61.9276L57.0061 40.934ZM35.7504 64.634C35.7602 65.3973 35.8916 66.1547 35.9256 66.927C35.3629 66.9175 34.7981 66.6788 34.2975 66.2539L35.7504 64.634Z" fill="url(#paint2_linear_234_517)"></path><path fill-rule="evenodd" clip-rule="evenodd" d="M43.3663 5.52767C44.0592 5.71297 44.7316 5.94366 45.3896 6.22036C45.4611 5.93755 45.533 5.63675 45.6095 5.3429C45.8667 4.36966 45.6247 3.12375 45.584 1.9692C46.8835 2.84705 48.1262 5.30135 48.2075 7.74029C48.7976 8.1254 49.3723 8.55857 49.9114 9.02631C50.0239 8.78213 50.1376 8.54436 50.2501 8.30723C50.6512 7.5113 50.6423 6.32585 50.7971 5.27174C51.8131 6.46956 52.5187 9.06814 52.1979 11.3136C52.266 11.3948 52.333 11.4761 52.3999 11.5581L17.6062 42.974L19.9236 54.293L18.7257 55.0885C17.6166 55.9931 16.9083 57.5864 16.0054 58.9558C15.0172 56.9691 15.4406 53.0763 17.4307 50.1851C17.0026 49.2078 16.6208 48.1817 16.279 47.1143C15.9019 47.2891 15.5145 47.4663 15.1472 47.6321C13.8673 48.171 12.7847 49.5937 11.5896 50.7169C11.1541 48.2309 12.5524 44.3117 15.155 42.0347C14.9915 40.8821 14.8845 39.7016 14.8335 38.4937C14.4293 38.5341 14.0311 38.5747 13.6269 38.6064C12.3028 38.6947 10.9418 39.7665 9.55463 40.4748C9.76192 37.7865 12.0586 34.3251 15.0151 32.9707C15.143 31.7502 15.3277 30.543 15.5684 29.3577C15.1949 29.2552 14.8201 29.1523 14.446 29.0485C13.2006 28.6869 11.6875 29.2686 10.2151 29.4827C11.0936 26.9286 14.032 24.3312 17.0519 24.0368C17.4421 22.9117 17.8939 21.8148 18.3969 20.7638C18.0732 20.5372 17.7549 20.3163 17.4365 20.0796C16.4036 19.3224 14.9076 19.3621 13.5231 19.0748C14.9234 16.9663 18.1619 15.5068 20.9474 16.2204C21.5593 15.3089 22.1921 14.4454 22.8708 13.6294C22.6294 13.3124 22.3924 13.0013 22.1554 12.6892C21.4034 11.6524 20.0583 11.2062 18.912 10.4887C20.6194 9.01768 23.8094 8.73111 26.1274 10.2819C26.864 9.64453 27.6216 9.05268 28.3903 8.52786C28.2398 8.17761 28.0955 7.81195 27.9512 7.4524C27.5061 6.2815 26.4058 5.43946 25.5355 4.44544C27.3607 3.66163 30.2166 4.41229 31.9458 6.52767C32.7305 6.19053 33.51 5.89985 34.3 5.67057C34.2432 5.30773 34.1857 4.95139 34.1286 4.58109C33.9622 3.39294 33.164 2.31142 32.5966 1.15115C34.3425 1.02633 36.713 2.58864 37.8516 5.01841C38.5957 4.95647 39.3506 4.95045 40.1051 4.99707C40.1202 4.65378 40.135 4.31759 40.1502 3.97482C40.2212 2.85947 39.7166 1.65533 39.4377 0.436314C40.99 0.885246 42.7998 3.00946 43.3663 5.52767Z" fill="url(#paint3_linear_234_517)"></path><path d="M79.8223 27.238C79.8223 28.3565 79.9041 29.0886 80.8863 29.0886C81.8411 29.0886 81.8684 28.3838 82.3867 27.1834C82.8779 26.0695 83.6144 25.4965 84.3784 25.4965C85.5514 25.4965 85.5787 27.1561 85.5787 31.3257C85.5787 35.327 85.5787 37.5323 84.9785 37.9688C84.3784 38.4053 83.86 38.1052 83.86 39.4921C83.86 40.6105 84.4602 40.6924 85.6606 40.6924C86.9428 40.6924 87.9796 40.6651 88.7707 40.6651C89.8347 40.6651 90.7077 40.6924 91.3078 40.6924H91.8262C93.0811 40.6924 93.7087 40.6378 93.7087 39.4921C93.7087 38.0779 93.1631 38.4053 92.5902 37.9688C92.0718 37.5869 91.9899 35.7908 91.9899 32.5489V29.4978C91.9899 26.474 92.099 25.4692 93.1631 25.4692C93.9816 25.4692 94.718 26.0422 95.2637 27.1834C95.7002 28.1109 95.7275 28.8704 96.7642 28.8704C97.3098 28.8704 97.7463 28.5474 97.7463 28.0565V23.805C97.7463 22.8501 97.3918 22.4683 96.6551 22.4683H80.9682C79.9041 22.4683 79.8223 23.0412 79.8223 23.996V27.238ZM100.747 32.5625C100.747 35.7999 100.666 37.6095 100.147 37.9915C99.5469 38.428 99.0013 38.128 99.0013 39.5192C99.0013 40.5014 99.5196 40.7242 100.556 40.7242C103.803 40.7242 106.095 40.6924 107.459 40.6924H111.224C113.379 40.6924 114.552 40.7242 114.825 40.7242C115.78 40.7242 115.943 40.5287 116.052 39.7649C116.243 38.3735 116.352 36.6775 116.352 35.3861C116.352 34.4267 116.134 33.9902 115.288 33.9902C114.279 33.9902 114.143 35.1406 113.433 36.0726C112.724 36.9776 111.087 37.6914 109.287 37.6914C107.349 37.6914 107.186 36.7048 107.186 34.7314V33.9356C107.186 32.8898 107.24 32.4533 107.841 32.4533C108.577 32.4533 108.85 33.0035 109.15 34.1539C109.341 34.8678 109.587 35.3315 110.432 35.3315C111.442 35.3315 111.687 34.9222 111.687 33.8811C111.687 33.6037 111.66 32.9444 111.66 31.935V29.6705C111.66 28.1701 111.578 27.5154 110.487 27.5154C109.259 27.5154 109.259 28.2247 109.041 28.7976C108.85 29.2613 108.468 29.5342 107.895 29.5342C107.104 29.5342 107.049 29.234 107.049 28.0063V26.7515C107.049 25.7967 107.104 25.4146 107.95 25.4146C108.059 25.4146 108.495 25.4419 109.259 25.4419C111.333 25.4419 112.615 25.7694 113.188 27.1879C113.542 28.0337 113.542 28.8248 114.497 28.8248C115.534 28.8248 115.561 28.1701 115.561 27.1061V23.6959C115.561 22.5227 115.316 22.4136 114.388 22.4136C114.033 22.4136 111.36 22.4956 106.258 22.4956C102.793 22.4956 100.829 22.4136 100.338 22.4136C99.3014 22.4136 98.9195 22.6592 98.9195 23.6959C98.9195 24.9509 99.8471 24.8963 100.311 25.3328C100.72 25.7147 100.747 27.6244 100.747 31.2257V32.5625ZM125.001 40.9971C130.075 40.9971 132.694 38.81 132.694 34.7176C132.694 31.6349 131.057 30.1889 127.729 28.7157C125.574 27.7609 124.073 27.5154 124.073 26.4787C124.073 25.8784 124.673 25.3874 125.574 25.3874C126.474 25.3874 127.756 25.8511 128.902 26.806C129.83 27.57 130.021 28.4156 130.839 28.4156C131.494 28.4156 132.067 28.0883 132.067 27.4335C132.067 27.2152 131.876 25.8784 131.385 23.5049C131.194 22.5773 131.03 22.1681 130.375 22.1681C129.775 22.1681 129.339 22.6592 128.711 22.6592C128.056 22.6592 127.02 22.1681 125.355 22.1681C121.318 22.1681 118.644 24.8417 118.644 28.7703C118.644 31.6076 120.117 33.2445 123.364 34.4721C125.628 35.3179 127.101 35.4543 127.101 36.682C127.101 37.4187 126.474 37.9369 125.328 37.9369C123.991 37.9369 122.573 37.3095 121.645 36.2727C120.718 35.2361 120.581 34.4448 119.735 34.4448C118.562 34.4448 118.399 35.2088 118.399 37.0094C118.399 39.4648 118.699 40.5014 119.681 40.5014C119.954 40.5014 120.226 40.365 120.499 40.365C120.827 40.365 122.354 40.9971 125.001 40.9971ZM136.541 32.5625C136.541 35.7818 136.459 37.5823 135.941 37.9642C135.341 38.4008 134.795 38.1007 134.795 39.4921C134.795 40.4741 135.313 40.6924 136.35 40.6924C137.796 40.6924 138.805 40.6651 139.433 40.6651H141.943C147.126 40.6651 149.909 40.7515 150.346 40.7515C151.082 40.7515 151.218 40.6924 151.355 40.0377C151.409 39.7921 151.464 38.8645 151.6 37.2549C151.737 35.6453 151.764 34.8269 151.764 34.7996C151.764 34.0902 151.382 33.7083 150.755 33.7083C149.745 33.7083 149.418 34.6905 148.627 35.8362C147.699 37.1731 146.744 37.6095 144.753 37.6095C143.798 37.6095 143.307 37.4731 143.17 37.1458C142.925 36.5183 142.925 35.0451 142.925 32.7261V31.3621C142.925 27.6517 142.952 25.7147 143.361 25.3328C143.798 24.9236 144.753 24.8963 144.753 23.805C144.753 22.6865 144.398 22.4136 143.307 22.4136C142.789 22.4136 141.615 22.4683 139.733 22.4683C137.85 22.4683 136.65 22.4136 136.132 22.4136C135.095 22.4136 134.713 22.6592 134.713 23.6959C134.713 24.9509 135.641 24.8963 136.104 25.3328C136.514 25.7147 136.541 27.6244 136.541 31.2257V32.5625ZM154.956 32.5625C154.956 35.7999 154.874 37.6095 154.356 37.9915C153.756 38.428 153.21 38.128 153.21 39.5192C153.21 40.5014 153.728 40.7242 154.765 40.7242C158.012 40.7242 160.303 40.6924 161.667 40.6924H165.432C167.588 40.6924 168.761 40.7242 169.034 40.7242C169.988 40.7242 170.152 40.5287 170.261 39.7649C170.452 38.3735 170.561 36.6775 170.561 35.3861C170.561 34.4267 170.343 33.9902 169.497 33.9902C168.488 33.9902 168.351 35.1406 167.642 36.0726C166.933 36.9776 165.296 37.6914 163.495 37.6914C161.558 37.6914 161.395 36.7048 161.395 34.7314V33.9356C161.395 32.8898 161.449 32.4533 162.049 32.4533C162.786 32.4533 163.059 33.0035 163.359 34.1539C163.55 34.8678 163.795 35.3315 164.641 35.3315C165.651 35.3315 165.896 34.9222 165.896 33.8811C165.896 33.6037 165.869 32.9444 165.869 31.935V29.6705C165.869 28.1701 165.787 27.5154 164.696 27.5154C163.468 27.5154 163.468 28.2247 163.25 28.7976C163.059 29.2613 162.677 29.5342 162.104 29.5342C161.313 29.5342 161.258 29.234 161.258 28.0063V26.7515C161.258 25.7967 161.313 25.4146 162.159 25.4146C162.268 25.4146 162.704 25.4419 163.468 25.4419C165.541 25.4419 166.824 25.7694 167.397 27.1879C167.751 28.0337 167.751 28.8248 168.706 28.8248C169.743 28.8248 169.77 28.1701 169.77 27.1061V23.6959C169.77 22.5227 169.525 22.4136 168.597 22.4136C168.242 22.4136 165.569 22.4956 160.467 22.4956C157.002 22.4956 155.038 22.4136 154.547 22.4136C153.51 22.4136 153.128 22.6592 153.128 23.6959C153.128 24.9509 154.056 24.8963 154.52 25.3328C154.929 25.7147 154.956 27.6244 154.956 31.2257V32.5625ZM181.501 30.0708C180.546 30.0708 180.41 29.8797 180.41 29.0886C180.41 28.8157 180.437 28.4384 180.437 27.9473V26.7469C180.437 25.7148 180.546 25.2509 181.447 25.2509C182.702 25.2509 183.738 26.3376 183.738 27.8654C183.738 29.3341 183.002 30.0708 181.501 30.0708ZM187.067 40.6651H190.586C192.55 40.6651 193.532 39.983 193.532 38.6235C193.532 37.4232 192.305 37.7233 191.541 36.8502L187.667 32.4942C187.449 32.2487 187.312 32.1123 187.312 31.9759C187.312 31.8122 187.531 31.7031 187.803 31.5394C189.358 30.589 190.095 29.4433 190.095 27.729C190.095 24.3506 187.585 22.4136 182.647 22.4136C181.801 22.4136 180.137 22.4683 177.655 22.4683C176.618 22.4683 175.472 22.4136 174.244 22.4136C172.853 22.4136 172.335 22.4683 172.335 23.6959C172.335 24.9509 173.262 24.8963 173.726 25.3328C174.135 25.7147 174.162 27.6472 174.162 31.3485V32.7125C174.162 35.8454 174.081 37.5869 173.562 37.9415C172.962 38.378 172.416 38.0779 172.416 39.4648C172.416 40.6378 173.098 40.6924 174.626 40.6924H175.035C176.045 40.6924 177.163 40.6378 178.391 40.6378C179.291 40.6378 180.165 40.7242 181.01 40.7242C182.565 40.7242 183.247 40.7242 183.247 39.1919C183.247 38.0779 182.538 38.1598 181.801 37.9688C180.765 37.696 180.656 36.8229 180.656 34.0993C180.656 33.2582 180.71 32.8217 181.338 32.8217C181.965 32.8217 182.402 34.0175 183.629 36.391L185.375 39.7102C185.839 40.6105 185.948 40.6651 187.067 40.6651Z" fill="url(#paint4_linear_234_517)"></path><path fill-rule="evenodd" clip-rule="evenodd" d="M62.7229 53.6908L62.8497 54.0846L62.9928 54.4656L63.1518 54.8331L63.3267 55.1873L63.5168 55.5274L63.7228 55.8537L63.9439 56.1658L64.1806 56.4636L64.4323 56.7469L64.7 57.0158L64.9828 57.2698L65.2811 57.509L65.5952 57.7327L65.925 57.9412L66.2708 58.1337L66.6329 58.31L67.0111 58.4696L67.4062 58.6127L67.8176 58.7381L68.2457 58.8457L68.6904 58.9348L69.152 59.0051L69.6307 59.0557L70.1258 59.0868L70.6409 59.0971L70.9734 59.0937L71.3022 59.0831L71.6249 59.0663L71.9408 59.0431L72.2508 59.0146L72.554 58.9809L72.8511 58.9426L73.1419 58.8998L73.4264 58.8535L73.7041 58.8039L73.9755 58.7515L74.2407 58.6963L74.4998 58.6395L74.7518 58.581L74.9974 58.5215L75.237 58.461L75.4708 58.4005L75.6978 58.3403L75.9182 58.281L76.1325 58.2226L76.3413 58.1658L76.5435 58.1109L76.7399 58.0587L76.931 58.0089L77.117 57.963L77.2971 57.9208L77.4729 57.883L77.6448 57.8498L77.8131 57.8226L77.9781 57.8016L78.1418 57.7878L78.2987 57.7829L78.405 57.7845L78.5045 57.788L78.6036 57.7927L78.7026 57.7976L78.8012 57.8027L78.8986 57.8067L78.9966 57.8095L79.0798 57.8103L79.2926 57.7985L79.4138 57.7736L79.4632 57.7523L79.4731 57.7443L79.4846 57.7282L79.5101 57.662L79.5361 57.52L79.547 57.2971L79.5453 57.2391L79.5384 57.1483L79.5265 57.0337L79.5101 56.8979L79.49 56.7434L79.467 56.571L79.442 56.3822L79.4161 56.1773L79.39 55.9577L79.3645 55.7232L79.3405 55.4746L79.3191 55.2117L79.301 54.9356L79.287 54.6462L79.2779 54.3441L79.2747 54.0273L79.2797 53.7263L79.295 53.4495L79.3222 53.1944L79.3628 52.9568L79.42 52.7334L79.4964 52.5224L79.595 52.326L79.7157 52.1453L79.8554 51.9874L80.0057 51.8537L80.1616 51.7422L80.3182 51.6486L80.474 51.5676L80.6291 51.4938L80.7857 51.4228L80.9175 51.3633L80.9571 51.3402L80.9669 51.3018L80.9813 51.1899L80.9908 51.0156L80.9932 50.7979L80.977 50.5115L80.9416 50.3455L80.9092 50.2753L80.8919 50.2555L80.8583 50.2345L80.7603 50.2027L80.579 50.1766L80.3141 50.1669L80.2349 50.1677L80.1288 50.1701L80.0059 50.1741L79.867 50.1791L79.7121 50.1855L79.5411 50.1923L79.355 50.1998L79.1539 50.2074L78.9376 50.2152L78.7057 50.2227L78.4587 50.2297L78.1961 50.2359L77.9191 50.2412L77.626 50.2453L77.3177 50.2479L76.9945 50.2487L76.6077 50.2479L76.2413 50.2453L75.8955 50.2414L75.5697 50.2359L75.2644 50.2299L74.9791 50.2227L74.714 50.2154L74.4694 50.2074L74.2454 50.1999L74.041 50.1924L73.8568 50.1855L73.6932 50.1791L73.5509 50.1741L73.4298 50.1701L73.3312 50.1677L73.2593 50.1669L73.0634 50.1707L72.8922 50.1818L72.7448 50.1997L72.6226 50.2228L72.5255 50.25L72.4517 50.2787L72.3992 50.3066L72.3632 50.3322L72.3369 50.3575L72.3133 50.3879L72.2893 50.4297L72.2648 50.4895L72.2415 50.5725L72.2219 50.6808L72.2091 50.815L72.2044 50.9709L72.2103 51.12L72.2251 51.2294L72.2443 51.3024L72.2626 51.3446L72.2788 51.3691L72.2995 51.3907L72.3383 51.4189L72.4002 51.4509L72.4166 51.4565L72.4802 51.4701L72.5981 51.4898L72.7578 51.5174L72.9505 51.5599L73.1684 51.6253L73.4039 51.7233L73.6456 51.8591L73.7649 51.9467L73.8729 52.0477L73.9675 52.1588L74.0484 52.2759L74.1171 52.3975L74.176 52.5232L74.2263 52.6538L74.2688 52.788L74.3049 52.9267L74.3352 53.0706L74.3601 53.2201L74.3798 53.3743L74.3951 53.5354L74.4056 53.7028L74.412 53.8767L74.4139 54.0536L74.4136 54.3739L74.4114 54.669L74.4051 54.9461L74.392 55.2069L74.3695 55.4549L74.3333 55.6939L74.2773 55.9286L74.1933 56.1587L74.0725 56.3824L73.9078 56.588L73.7041 56.7604L73.4741 56.8895L73.2302 56.9781L72.977 57.0324L72.7154 57.061L72.4362 57.0695L72.1975 57.0605L71.9592 57.0331L71.7242 56.9878L71.4935 56.924L71.2681 56.8429L71.048 56.744L70.8356 56.6287L70.63 56.4973L70.4323 56.3506L70.2424 56.1888L70.0607 56.0128L69.8868 55.8228L69.7214 55.6195L69.5641 55.4029L69.415 55.1737L69.2737 54.9316L69.1409 54.6773L69.0159 54.4105L68.8992 54.1317L68.7904 53.8407L68.6898 53.5376L68.5974 53.2226L68.5133 52.896L68.4371 52.5568L68.3696 52.2059L68.3107 51.8432L68.2605 51.4688L68.2188 51.0822L68.1864 50.684L68.1628 50.2741L68.1487 49.8525L68.1438 49.4199L68.1467 49.0783L68.155 48.7476L68.1691 48.4266L68.1892 48.1149L68.2157 47.8133L68.2482 47.5211L68.2875 47.238L68.3334 46.9634L68.3872 46.6982L68.4479 46.4416L68.5169 46.1944L68.5937 45.9554L68.6796 45.7253L68.7743 45.504L68.8786 45.2919L68.9932 45.0878L69.1186 44.8943L69.2541 44.7111L69.4008 44.5383L69.5581 44.3768L69.7267 44.2271L69.9053 44.0903L70.0936 43.9673L70.2913 43.8571L70.498 43.7611L70.7117 43.6791L70.9325 43.6106L71.1606 43.5552L71.3957 43.513L71.6368 43.4833L71.8842 43.466L72.1404 43.46L72.4401 43.4689L72.7448 43.4947L73.0518 43.5378L73.3598 43.5972L73.6682 43.6731L73.9758 43.7648L74.2823 43.8727L74.5864 43.9962L74.8877 44.1358L75.1845 44.2908L75.4764 44.4617L75.7617 44.6478L76.0404 44.8499L76.3104 45.0673L76.5712 45.3002L76.8193 45.5465L77.0197 45.7639L77.1992 45.9799L77.3579 46.1884L77.4981 46.3867L77.6232 46.5712L77.7355 46.7394L77.8372 46.8886L77.9294 47.0159L78.0135 47.1202L78.0893 47.201L78.1578 47.2608L78.2213 47.3038L78.2875 47.3364L78.3662 47.362L78.4691 47.3805L78.6025 47.3877L78.7993 47.3762L78.9039 47.3527L78.9269 47.3412L78.9388 47.3207L78.9677 47.224L78.9925 47.0385L79.0019 46.7616L79.0015 46.3913L78.9997 46.026L78.9965 45.6768L78.9918 45.3428L78.9855 45.0247L78.9775 44.7219L78.9677 44.4347L78.9555 44.162L78.9417 43.9047L78.9255 43.6623L78.9072 43.435L78.8864 43.2219L78.8636 43.0248L78.8382 42.8421L78.8108 42.6745L78.7811 42.5215L78.7496 42.3843L78.7167 42.2624L78.6829 42.1565L78.6486 42.0661L78.6152 41.9916L78.5836 41.9327L78.555 41.8883L78.5305 41.8569L78.5109 41.8363L78.4953 41.8233L78.4832 41.8152L78.471 41.8091L78.4562 41.8037L78.4338 41.7983L78.4009 41.7938L78.3626 41.7921L78.331 41.7939L78.2895 41.8003L78.2325 41.8141L78.1623 41.8352L78.0809 41.864L77.9885 41.8998L77.8865 41.9414L77.7769 41.9865L77.6588 42.0353L77.5314 42.0848L77.3963 42.1336L77.2527 42.1792L77.1 42.2201L76.9367 42.253L76.7645 42.2752L76.5868 42.283L76.4861 42.2791L76.3909 42.2693L76.2983 42.2557L76.2059 42.2391L76.1116 42.2203L76.0127 42.1987L75.9093 42.1754L75.8001 42.1499L75.6856 42.1229L75.564 42.0943L75.4355 42.0642L75.3001 42.0329L75.1583 42.001L75.0084 41.9681L74.8511 41.935L74.6864 41.9016L74.5142 41.8685L74.3334 41.8355L74.1448 41.8031L73.9483 41.7711L73.7439 41.7407L73.5313 41.7112L73.3101 41.6834L73.0807 41.6572L72.8434 41.6334L72.597 41.6118L72.3423 41.5929L72.0788 41.5766L71.8067 41.5637L71.5257 41.5539L71.2363 41.548L70.9425 41.5458L70.4457 41.5565L69.9655 41.5876L69.4979 41.639L69.0433 41.71L68.602 41.8007L68.1736 41.9102L67.759 42.0384L67.3581 42.1846L66.9712 42.3491L66.598 42.5311L66.2389 42.7305L65.8941 42.9467L65.5636 43.18L65.2474 43.4295L64.9459 43.6956L64.6592 43.9778L64.3878 44.2763L64.1311 44.5905L63.89 44.9209L63.6641 45.2669L63.4545 45.6285L63.2609 46.0055L63.0842 46.398L62.9242 46.8053L62.7817 47.2281L62.6566 47.6659L62.5497 48.1182L62.4613 48.5846L62.392 49.0659L62.3416 49.561L62.3113 50.0699L62.3009 50.5924L62.3098 51.0689L62.3361 51.5348L62.3796 51.9898L62.4404 52.4329L62.518 52.8645L62.6122 53.284L62.7229 53.6908ZM88.8524 45.6149L88.7236 45.6378L88.5858 45.6638L88.4398 45.6926L88.2847 45.7248L88.1214 45.7601L87.9509 45.7987L87.7736 45.8406L87.5894 45.8863L87.3987 45.9353L87.2024 45.9882L87.0008 46.0445L86.7941 46.105L86.5829 46.1691L86.3677 46.2374L86.1488 46.3095L85.9268 46.3859L85.7016 46.4667L85.4744 46.5516L85.2454 46.6408L85.0145 46.7346L84.7826 46.8329L84.5499 46.9357L84.315 47.044L84.1304 47.1314L83.9612 47.2156L83.8059 47.2977L83.6656 47.3765L83.5403 47.4531L83.4293 47.5267L83.3343 47.5965L83.2556 47.6611L83.1929 47.7199L83.1451 47.7723L83.1108 47.817L83.0888 47.8525L83.0761 47.8798L83.0686 47.9021L83.0658 47.9164L83.0734 47.9677L83.0856 47.9796L83.1657 48.0279L83.3136 48.0938L83.5144 48.1732L83.7566 48.2785L84.0175 48.4322L84.1797 48.5761L84.3093 48.7421L84.4078 48.9166L84.4826 49.0945L84.5422 49.2789L84.5897 49.4719L84.6284 49.6753L84.6597 49.8899L84.6855 50.1188L84.7061 50.3622L84.7224 50.621L84.7347 50.8953L84.7437 51.1864L84.7496 51.4941L84.7528 51.8189L84.7537 52.1597V52.6426L84.7534 52.8737L84.7529 53.0975L84.7522 53.315L84.751 53.5259L84.7496 53.7307L84.7473 53.9284L84.7446 54.1202L84.7412 54.3056L84.7371 54.4855L84.7317 54.6586L84.7259 54.8258L84.7187 54.9875L84.7106 55.1434L84.701 55.2933L84.6903 55.438L84.6779 55.5776L84.664 55.713L84.6481 55.8421L84.6306 55.9673L84.6104 56.0885L84.5879 56.2057L84.5624 56.3185L84.5338 56.4287L84.5009 56.5367L84.4632 56.6428L84.42 56.7453L84.3703 56.8469L84.3114 56.9469L84.2434 57.0444L84.1497 57.154L83.887 57.376L83.6213 57.5308L83.4104 57.634L83.2728 57.7074L83.2102 57.7542L83.189 57.781L83.1652 57.8427L83.1452 58.0358L83.1538 58.2942L83.1808 58.5043L83.2169 58.6331L83.2453 58.687L83.2601 58.7025L83.2945 58.7218L83.3998 58.7496L83.6146 58.7649L83.6275 58.7646L83.6917 58.7625L83.7858 58.7586L83.9073 58.7531L84.0548 58.7471L84.227 58.7401L84.4249 58.7326L84.6489 58.7247L84.898 58.7172L85.1725 58.7097L85.4725 58.7028L85.7985 58.6964L86.1502 58.691L86.528 58.6869L86.9314 58.6844L87.3613 58.6833L87.8356 58.6844L88.2811 58.6869L88.6981 58.691L89.0867 58.6964L89.4466 58.7028L89.7784 58.7095L90.082 58.7172L90.3581 58.7246L90.6059 58.7326L90.8257 58.7399L91.0171 58.747L91.1808 58.7531L91.3163 58.7585L91.4222 58.7623L91.4962 58.7646L91.5248 58.765L91.7747 58.7534L91.9368 58.7245L92.02 58.6928L92.0498 58.6715L92.0707 58.6448L92.1041 58.5662L92.137 58.4024L92.1505 58.1521L92.1432 58.0347L92.1273 57.9593L92.1095 57.9139L92.0912 57.884L92.0658 57.8552L92.023 57.8197L91.9569 57.7777L91.8652 57.7311L91.7474 57.6814L91.6066 57.6287L91.4461 57.5726L91.2693 57.5108L91.0783 57.4406L90.8762 57.358L90.6661 57.2594L90.4503 57.1395L90.2592 57.0106L90.0755 56.842L89.9181 56.6493L89.7884 56.4384L89.6834 56.2135L89.5996 55.9754L89.5331 55.7248L89.4806 55.4597L89.4393 55.1783L89.4073 54.8772L89.3832 54.5554L89.3658 54.2108L89.3539 53.8416L89.3464 53.4459L89.3425 53.0226L89.3416 52.5706V50.4388C89.6284 49.6143 90.8802 48.124 92.0071 48.9408L92.2063 49.0903L92.401 49.2611L92.5802 49.4398L92.7625 49.6238L92.936 49.8004L93.1005 49.9679L93.2572 50.1253L93.4059 50.272L93.5469 50.4061L93.6804 50.5271L93.8071 50.6343L93.9257 50.7268L94.0362 50.8035L94.1389 50.8654L94.2339 50.9131L94.3212 50.9478L94.4028 50.9709L94.4822 50.9844L94.5601 50.9888L94.635 50.9839L94.6899 50.9722L94.7334 50.9555L94.7735 50.9323L94.8156 50.8982L94.863 50.8469L94.9149 50.7731L94.9694 50.6734L95.0234 50.546L95.0746 50.3903L95.1207 50.2069L95.1605 49.9962L95.1921 49.7602L95.2154 49.498L95.2296 49.2112L95.2344 48.9051L95.2235 48.5336L95.1929 48.1849L95.1432 47.8563L95.0761 47.5493L94.9929 47.2652L94.8957 47.0049L94.7864 46.7702L94.6668 46.5622L94.5391 46.3816L94.4056 46.2281L94.2685 46.1018L94.13 46.0017L93.9904 45.9262L93.8493 45.8734L93.7049 45.8417L93.5475 45.8302L93.4445 45.8355L93.3256 45.8531L93.1951 45.8843L93.0531 45.93L92.8988 45.9915L92.7322 46.0696L92.554 46.1644L92.3644 46.2759L92.1632 46.4045L91.9507 46.5494L91.727 46.7105L91.4922 46.887L91.2456 47.0792L90.9877 47.2859L90.7177 47.5071L89.295 48.5857L89.3528 47.0218L89.3632 46.8594L89.3732 46.7064L89.3832 46.5626L89.3926 46.4285L89.4018 46.3035L89.4104 46.1878L89.4185 46.0823L89.4257 45.9864L89.4324 45.9002L89.438 45.8229L89.4431 45.7575L89.4466 45.7036L89.4493 45.6618L89.4504 45.6348L89.4451 45.5306L89.4399 45.531L89.3952 45.5353L89.3356 45.5419L89.2625 45.5513L89.1758 45.5633L89.0784 45.5777L88.971 45.5947L88.8524 45.6149ZM115.226 57.1639L115.242 57.1355L115.25 57.1124L115.255 57.0883L115.256 57.0817L115.246 57.0136L115.244 57.0087L115.219 56.9826L115.131 56.9252L114.976 56.8498L114.766 56.7614L114.515 56.6528L114.236 56.5065L114.029 56.3557L113.847 56.1805L113.692 55.9834L113.564 55.7701L113.46 55.5446L113.377 55.3075L113.311 55.0597L113.26 54.8005L113.22 54.5285L113.19 54.241L113.167 53.9373L113.152 53.6159L113.141 53.2759L113.135 52.9153L113.132 52.5334L113.131 52.1293V51.2327L113.132 50.9722L113.133 50.718L113.135 50.4713L113.137 50.232L113.14 50.0004L113.144 49.7755L113.148 49.5585L113.153 49.3487L113.158 49.1466L113.163 48.9515L113.169 48.7637L113.175 48.5834L113.181 48.4108L113.187 48.2449L113.194 48.0871L113.2 47.9367L113.206 47.7935L113.213 47.6576L113.219 47.5289L113.225 47.4081L113.231 47.2951L113.237 47.1888L113.242 47.0909L113.252 46.9173L113.256 46.8422L113.263 46.7195L113.265 46.6666L113.267 46.6247L113.267 46.5951L113.255 46.4086L113.228 46.2944L113.199 46.2303L113.173 46.1969L113.14 46.1711L113.074 46.1415L112.959 46.1147L112.772 46.1022L112.757 46.1025L112.698 46.1041L112.616 46.1067L112.513 46.1101L112.39 46.1145L112.247 46.119L112.084 46.1242L111.902 46.129L111.7 46.1343L111.478 46.1393L111.236 46.1439L110.975 46.148L110.694 46.1516L110.393 46.1542L110.073 46.1559L109.732 46.1564L109.466 46.1559L109.215 46.1542L108.979 46.1516L108.758 46.1479L108.553 46.1439L108.362 46.1391L108.187 46.1342L108.029 46.1289L107.884 46.1241L107.755 46.1189L107.641 46.1142L107.544 46.1098L107.463 46.1066L107.398 46.104L107.347 46.1022L107.145 46.1153L107.032 46.1419L106.982 46.1663L106.96 46.1852L106.933 46.2274L106.896 46.3297L106.865 46.5108L106.853 46.7563L106.872 46.9785L106.904 47.0865L106.931 47.1312L106.965 47.1636L107.036 47.2077L107.159 47.2635L107.335 47.3331L107.541 47.4236L107.7 47.5085L107.855 47.6166L107.996 47.7435L108.121 47.8874L108.225 48.044L108.308 48.2071L108.373 48.3747L108.424 48.5456L108.462 48.7201L108.49 48.8974L108.51 49.0795L108.524 49.2685L108.534 49.4655L108.54 49.6711L108.542 49.8869L108.543 50.1131V51.6967L108.543 51.8758L108.544 52.0494L108.546 52.2182L108.547 52.3826L108.549 52.5427L108.554 52.8295L108.557 52.9951L108.559 53.1386L108.562 53.2775L108.564 53.4122C108.62 55.0814 106.451 57.3687 104.47 55.8469L104.23 55.563L104.037 55.2478L103.885 54.9085L103.768 54.5473L103.681 54.166L103.618 53.7636L103.574 53.3385L103.547 52.8887L103.532 52.4135L103.528 51.9129L103.529 51.6036L103.53 51.3041L103.533 51.0128L103.537 50.7293L103.542 50.4541L103.548 50.1865L103.555 49.9267L103.562 49.6754L103.57 49.4325L103.579 49.1968L103.588 48.9692L103.598 48.7496L103.607 48.5386L103.617 48.3348L103.628 48.1391L103.638 47.9522L103.648 47.7732L103.659 47.6018L103.669 47.4389L103.678 47.2835L103.688 47.1369L103.697 46.9982L103.705 46.8674L103.713 46.7455L103.727 46.5366L103.738 46.3476L103.741 46.2645L103.744 46.196L103.746 46.1375L103.746 46.1096L103.746 46.1033L103.717 46.1041L103.644 46.1067L103.557 46.11L103.457 46.1144L103.342 46.1189L103.215 46.1241L103.075 46.1289L102.922 46.134L102.756 46.1391L102.578 46.1439L102.387 46.1479L102.182 46.1515L101.965 46.1542L101.736 46.1559L101.494 46.1564L101.122 46.1559L100.769 46.1542L100.435 46.1516L100.12 46.148L99.8245 46.1439L99.5479 46.1393L99.2909 46.1343L99.0539 46.1291L98.8358 46.1243L98.6377 46.1192L98.4595 46.1146L98.2911 46.1098L98.0519 46.1042L97.9591 46.1026L97.9016 46.102L97.6317 46.1125L97.4508 46.1395L97.356 46.1708L97.328 46.1884L97.3179 46.2001L97.293 46.2544L97.263 46.3957L97.2493 46.6414L97.2532 46.7867L97.2643 46.8919L97.2767 46.9472L97.2835 46.964L97.284 46.9648L97.2931 46.9743L97.333 47.0049L97.4213 47.0567L97.5832 47.1391L97.7564 47.2305L97.9215 47.324L98.0801 47.4228L98.2328 47.531L98.3789 47.6523L98.5157 47.7894L98.6405 47.9444L98.7476 48.1158L98.8345 48.2982L98.9016 48.4898L98.9508 48.6881L98.9846 48.8932L99.0066 49.1066L99.0184 49.3323L99.022 49.5697L99.0216 49.6769L99.0207 49.7832L99.019 49.8926L99.0171 50.006L99.0144 50.1234L99.0114 50.2435L99.008 50.367L99.0046 50.4955L99.0003 50.6277L98.9961 50.7628L98.9914 50.9017L98.9868 51.0448L98.9818 51.1914L98.977 51.3417L98.9718 51.4958L98.9672 51.6539L98.9619 51.8174L98.9568 51.9832L98.9517 52.1526L98.9469 52.3264L98.9421 52.5041L98.9377 52.6854L98.9335 52.8705L98.9296 53.0598L98.9258 53.2538L98.9225 53.4508L98.9197 53.6517L98.9173 53.8568L98.9152 54.0657L98.9139 54.2783L98.9129 54.495L98.9128 54.7128L98.9159 55.0131L98.9257 55.2986L98.9418 55.5729L98.9649 55.8353L98.9942 56.0864L99.0304 56.3254L99.073 56.5523L99.1226 56.768L99.1782 56.9721L99.2401 57.1638L99.3082 57.344L99.3825 57.513L99.4627 57.671L99.5488 57.818L99.6405 57.9546L99.7394 58.0824L99.8445 58.2018L99.9561 58.3121L100.075 58.4149L100.203 58.5107L100.341 58.5995L100.487 58.6815L100.645 58.7567L100.815 58.8253L100.996 58.887L101.191 58.9411L101.398 58.9878L101.619 59.0265L101.853 59.0573L102.101 59.0792L102.363 59.0927L102.642 59.0972L102.819 59.0956L102.995 59.0904L103.167 59.0818L103.336 59.0695L103.501 59.0541L103.663 59.0347L103.823 59.0121L103.98 58.9856L104.134 58.9558L104.285 58.9224L104.435 58.8854L104.583 58.8447L104.729 58.8001L104.873 58.7519L105.016 58.7L105.159 58.6435L105.3 58.5834L105.44 58.5192L105.58 58.4508L105.72 58.378L105.86 58.301L105.999 58.2195L106.139 58.1332L106.28 58.0419L106.421 57.9465L106.562 57.8461L106.704 57.7406L106.847 57.6299L106.991 57.5143L107.137 57.3934L107.283 57.2674L108.582 56.115L108.538 57.8528L108.533 58.0475L108.528 58.2316L108.523 58.4053L108.518 58.5684L108.514 58.7197L108.509 58.8597L108.505 58.9888L108.5 59.165L108.495 59.3051L108.493 59.3867L108.491 59.4546L108.49 59.509L108.489 59.548L108.489 59.5576L108.496 59.7101L108.505 59.7633L108.536 59.7547L108.598 59.7361L108.672 59.7128L108.757 59.685L108.852 59.6532L108.955 59.6175L109.068 59.5779L109.192 59.5343L109.324 59.4872L109.464 59.4365L109.615 59.3821L109.775 59.3242L109.943 59.2629L110.121 59.1986L110.504 59.0599L110.709 58.9861L110.924 58.9089L111.148 58.8289L111.381 58.7455L111.623 58.6597L111.875 58.5709L112.136 58.4794L112.407 58.385L112.687 58.2881L112.977 58.1884L113.275 58.0865L113.583 57.9822L113.83 57.8981L114.056 57.8167L114.263 57.7371L114.452 57.6589L114.621 57.5826L114.77 57.508L114.899 57.4363L115.005 57.3681L115.09 57.3054L115.154 57.2494L115.198 57.2016L115.226 57.1639ZM120.69 45.7897L120.478 45.833L120.266 45.8785L120.052 45.9264L119.838 45.9759L119.626 46.0276L119.415 46.0809L119.206 46.1359L119 46.1923L118.797 46.2502L118.599 46.3091L118.405 46.3692L118.217 46.4302L118.034 46.4923L117.858 46.5545L117.691 46.6171L117.531 46.6801L117.38 46.743L117.245 46.8026L117.096 46.8766L116.993 46.9373L116.938 46.9802L116.912 47.0078L116.894 47.0404L116.87 47.1108L116.847 47.246L116.839 47.4346L116.858 47.6186L116.873 47.6535L116.878 47.6595L116.947 47.7022L117.117 47.7802L117.374 47.8999L117.686 48.0935L117.98 48.3751L118.071 48.4966L118.138 48.6056L118.195 48.717L118.245 48.8325L118.288 48.9507L118.325 49.0712L118.358 49.1971L118.388 49.3279L118.415 49.4645L118.439 49.6058L118.461 49.7535L118.48 49.9082L118.498 50.07L118.514 50.2385L118.528 50.4139L118.541 50.5971L118.552 50.7886L118.562 50.9869L118.57 51.1934L118.578 51.4076L118.584 51.6301L118.59 51.8605L118.595 52.0993L118.599 52.3466L118.602 52.6024L118.605 52.8663L118.607 53.1386L118.608 53.4193L118.609 53.7091L118.61 54.0072L118.61 54.3141L118.61 54.6294V58.7499L118.609 59.1896L118.607 59.6044L118.602 59.9944L118.594 60.3603L118.583 60.7032L118.567 61.0234L118.547 61.3225L118.521 61.6017L118.488 61.8624L118.447 62.1059L118.397 62.335L118.333 62.5518L118.253 62.7583L118.15 62.9555L118.018 63.1419L117.866 63.293L117.73 63.3979L117.617 63.4765L117.513 63.544L117.42 63.6031L117.339 63.6557L117.272 63.7027L117.218 63.7449L117.175 63.7836L117.141 63.8207L117.113 63.8586L117.088 63.9013L117.064 63.9558L117.04 64.0289L117.02 64.1248L117.006 64.2483L117.001 64.3921L117.011 64.5539L117.032 64.6443L117.047 64.6781L117.051 64.683L117.062 64.6911L117.113 64.7116L117.225 64.7339L117.417 64.7444H117.574L118.133 64.7179L118.259 64.7126L118.398 64.7066L118.551 64.7003L118.72 64.6935L118.903 64.6867L119.1 64.6799L119.312 64.673L119.539 64.6663L119.78 64.6601L120.035 64.6543L120.304 64.6491L120.589 64.6445L120.888 64.6408L121.201 64.6378L121.53 64.6361L121.872 64.6353L122.027 64.6354H122.184L122.343 64.6358L122.504 64.6362L122.666 64.6372L122.831 64.6384L122.997 64.6401L123.165 64.6424L123.335 64.6453L123.506 64.6489L123.678 64.6535L123.852 64.6589L124.027 64.6654L124.202 64.6727L124.38 64.6814L124.552 64.6907L125.161 64.7172H125.173L125.328 64.704L125.409 64.6806L125.456 64.6545L125.49 64.6232L125.524 64.5722L125.559 64.4856L125.587 64.3554L125.598 64.1735L125.594 64.0568L125.583 63.9619L125.568 63.897L125.554 63.8583L125.543 63.8378L125.532 63.8234L125.515 63.8069L125.486 63.7842L125.436 63.7545L125.362 63.7189L125.264 63.6795L125.144 63.6369L125.001 63.5915L124.838 63.5422L124.657 63.4881L124.439 63.4219L124.213 63.3351L123.989 63.2124L123.784 63.0528L123.61 62.859L123.474 62.6418L123.375 62.411L123.306 62.1746L123.26 61.9315L123.229 61.6788L123.21 61.4106L123.198 61.1236L123.191 60.8137L123.187 60.4781L123.184 60.1124L123.179 59.7149L123.154 58.341L124.191 58.6829L124.329 58.7247L124.466 58.7633L124.602 58.7986L124.737 58.8305L124.871 58.8589L125.005 58.8843L125.141 58.9068L125.275 58.9267L125.409 58.9433L125.544 58.9574L125.681 58.9684L125.818 58.9772L125.956 58.9833L126.096 58.9868L126.234 58.988L126.61 58.9804L126.972 58.9582L127.324 58.9215L127.665 58.8702L127.995 58.8052L128.315 58.7265L128.624 58.6343L128.922 58.5289L129.209 58.4107L129.485 58.28L129.75 58.1366L130.004 57.9811L130.247 57.8133L130.479 57.6332L130.7 57.4411L130.909 57.2369L131.108 57.0207L131.296 56.7924L131.472 56.5522L131.637 56.2994L131.79 56.0346L131.932 55.7572L132.062 55.4677L132.179 55.1658L132.284 54.8519L132.375 54.5251L132.454 54.1862L132.519 53.8351L132.57 53.4719L132.608 53.0966L132.63 52.7096L132.638 52.3105L132.631 51.9526L132.612 51.6012L132.58 51.2571L132.535 50.9206L132.479 50.5922L132.412 50.2722L132.333 49.961L132.244 49.6588L132.143 49.3661L132.033 49.0831L131.913 48.8099L131.783 48.5469L131.645 48.295L131.497 48.0535L131.341 47.8233L131.178 47.6047L131.006 47.3981L130.827 47.2028L130.641 47.0199L130.448 46.8493L130.249 46.6913L130.043 46.5455L129.832 46.4129L129.615 46.2933L129.393 46.1871L129.164 46.094L128.931 46.0144L128.692 45.9488L128.448 45.8972L128.198 45.8598L127.943 45.837L127.68 45.8292L127.43 45.8342L127.188 45.8487L126.958 45.8729L126.738 45.9063L126.525 45.9489L126.318 46.001L126.116 46.0624L125.916 46.1334L125.717 46.2148L125.516 46.3067L125.314 46.4095L125.107 46.5236L124.896 46.6496L124.678 46.7871L124.454 46.9366L123.141 47.8494L123.196 45.4749L123.178 45.4745L123.056 45.4763L122.919 45.4815L122.771 45.49L122.614 45.5019L122.448 45.5172L122.274 45.5357L122.093 45.5575L121.906 45.582L121.714 45.6099L121.516 45.6405L121.314 45.6741L121.109 45.7099L120.901 45.7488L120.69 45.7897ZM123.171 56.1198V49.9764L123.186 49.6438L123.241 49.3116L123.346 48.9913L123.519 48.6912L123.766 48.4357L124.075 48.2525L124.413 48.1525L124.754 48.1238L124.935 48.1334L125.103 48.159L125.266 48.2002L125.425 48.2549L125.579 48.323L125.726 48.402L125.869 48.4918L126.007 48.5919L126.141 48.7022L126.269 48.8205L126.393 48.9475L126.513 49.0835L126.629 49.2277L126.74 49.3794L126.846 49.5391L126.949 49.707L127.047 49.8827L127.14 50.0654L127.228 50.2555L127.311 50.4522L127.389 50.6567L127.462 50.8677L127.528 51.0851L127.589 51.3094L127.644 51.5405L127.692 51.7771L127.733 52.02L127.768 52.2689L127.795 52.5238L127.815 52.7838L127.827 53.0493L127.832 53.3225L127.821 53.7748L127.791 54.2081L127.739 54.6209L127.667 55.0124L127.572 55.3834L127.456 55.7327L127.316 56.0601L127.152 56.3645L126.961 56.6444L126.744 56.8968L126.499 57.1186L126.228 57.3052L125.934 57.4534L125.62 57.5596L125.293 57.6227L124.963 57.6428L124.588 57.6285L124.25 57.5789L123.926 57.4752L123.624 57.2898L123.387 57.0202L123.247 56.7099L123.185 56.4041L123.171 56.1198ZM138.778 45.7897L138.566 45.833L138.353 45.8785L138.14 45.9264L137.926 45.9759L137.714 46.0276L137.503 46.0809L137.294 46.1359L137.088 46.1923L136.885 46.2502L136.687 46.3091L136.493 46.3692L136.305 46.4302L136.122 46.4923L135.946 46.5545L135.778 46.6171L135.619 46.6801L135.468 46.743L135.333 46.8026L135.184 46.8766L135.081 46.9373L135.025 46.9802L135 47.0078L134.981 47.0404L134.957 47.1108L134.935 47.246L134.926 47.4346L134.946 47.6186L134.96 47.6535L134.966 47.6595L135.035 47.7022L135.205 47.7802L135.462 47.8999L135.773 48.0935L136.068 48.3751L136.159 48.4966L136.226 48.6056L136.283 48.717L136.333 48.8325L136.376 48.9507L136.413 49.0712L136.446 49.1971L136.476 49.3279L136.503 49.4645L136.527 49.6058L136.548 49.7535L136.568 49.9082L136.586 50.07L136.601 50.2385L136.615 50.4139L136.628 50.5971L136.639 50.7886L136.649 50.9869L136.658 51.1934L136.666 51.4076L136.672 51.6301L136.678 51.8605L136.683 52.0993L136.687 52.3466L136.69 52.6024L136.692 52.8663L136.694 53.1386L136.696 53.4193L136.697 53.7091L136.697 54.0072L136.698 54.3141L136.698 54.6294V58.7499L136.697 59.1896L136.695 59.6044L136.69 59.9944L136.682 60.3603L136.67 60.7032L136.655 61.0234L136.635 61.3225L136.609 61.6017L136.576 61.8624L136.535 62.1059L136.485 62.335L136.421 62.5518L136.341 62.7583L136.238 62.9555L136.106 63.1419L135.954 63.293L135.818 63.3979L135.705 63.4765L135.601 63.544L135.508 63.6031L135.427 63.6557L135.36 63.7027L135.306 63.7449L135.263 63.7836L135.229 63.8207L135.201 63.8586L135.175 63.9013L135.151 63.9558L135.128 64.0289L135.108 64.1248L135.094 64.2483L135.089 64.3921L135.099 64.5539L135.119 64.6443L135.135 64.6781L135.139 64.683L135.15 64.6911L135.201 64.7116L135.313 64.7339L135.505 64.7444H135.661L136.22 64.7179L136.346 64.7126L136.486 64.7066L136.639 64.7003L136.808 64.6935L136.991 64.6867L137.188 64.6799L137.4 64.673L137.627 64.6663L137.867 64.6601L138.123 64.6543L138.392 64.6491L138.677 64.6445L138.976 64.6408L139.289 64.6378L139.617 64.6361L139.96 64.6353L140.115 64.6354H140.272L140.431 64.6358L140.592 64.6362L140.754 64.6372L140.919 64.6384L141.085 64.6401L141.253 64.6424L141.422 64.6453L141.593 64.6489L141.766 64.6535L141.94 64.6589L142.114 64.6654L142.29 64.6727L142.467 64.6814L142.64 64.6907L143.249 64.7172H143.261L143.416 64.704L143.497 64.6806L143.544 64.6545L143.577 64.6232L143.612 64.5722L143.647 64.4856L143.674 64.3554L143.686 64.1735L143.682 64.0568L143.67 63.9619L143.655 63.897L143.641 63.8583L143.63 63.8378L143.62 63.8234L143.603 63.8069L143.573 63.7842L143.523 63.7545L143.45 63.7189L143.352 63.6795L143.231 63.6369L143.089 63.5915L142.926 63.5422L142.745 63.4881L142.527 63.4219L142.301 63.3351L142.077 63.2124L141.872 63.0528L141.698 62.859L141.561 62.6418L141.462 62.411L141.394 62.1746L141.348 61.9315L141.317 61.6788L141.298 61.4106L141.286 61.1236L141.279 60.8137L141.275 60.4781L141.271 60.1124L141.267 59.7149L141.242 58.341L142.279 58.6829L142.416 58.7247L142.553 58.7633L142.69 58.7986L142.825 58.8305L142.959 58.8589L143.093 58.8843L143.228 58.9068L143.363 58.9267L143.497 58.9433L143.632 58.9574L143.768 58.9684L143.906 58.9772L144.044 58.9833L144.184 58.9868L144.322 58.988L144.698 58.9804L145.06 58.9582L145.412 58.9215L145.753 58.8702L146.083 58.8052L146.403 58.7265L146.712 58.6343L147.01 58.5289L147.297 58.4107L147.573 58.28L147.838 58.1366L148.092 57.9811L148.334 57.8133L148.566 57.6332L148.787 57.4411L148.997 57.2369L149.196 57.0207L149.383 56.7924L149.56 56.5522L149.725 56.2994L149.878 56.0346L150.02 55.7572L150.149 55.4677L150.267 55.1658L150.371 54.8519L150.463 54.5251L150.542 54.1862L150.607 53.8351L150.658 53.4719L150.695 53.0966L150.718 52.7096L150.725 52.3105L150.719 51.9526L150.699 51.6012L150.667 51.2571L150.623 50.9206L150.567 50.5922L150.5 50.2722L150.421 49.961L150.331 49.6588L150.231 49.3661L150.121 49.0831L150 48.8099L149.871 48.5469L149.732 48.295L149.585 48.0535L149.429 47.8233L149.265 47.6047L149.094 47.3981L148.915 47.2028L148.729 47.0199L148.536 46.8493L148.337 46.6913L148.131 46.5455L147.92 46.4129L147.703 46.2933L147.481 46.1871L147.252 46.094L147.018 46.0144L146.78 45.9488L146.535 45.8972L146.286 45.8598L146.031 45.837L145.768 45.8292L145.517 45.8342L145.276 45.8487L145.046 45.8729L144.825 45.9063L144.613 45.9489L144.406 46.001L144.204 46.0624L144.004 46.1334L143.804 46.2148L143.604 46.3067L143.401 46.4095L143.195 46.5236L142.983 46.6496L142.766 46.7871L142.542 46.9366L141.229 47.8494L141.284 45.4749L141.266 45.4745L141.144 45.4763L141.007 45.4815L140.858 45.49L140.701 45.5019L140.535 45.5172L140.361 45.5357L140.181 45.5575L139.994 45.582L139.801 45.6099L139.604 45.6405L139.402 45.6741L139.197 45.7099L138.989 45.7488L138.778 45.7897ZM141.259 56.1198V49.9764L141.274 49.6438L141.329 49.3116L141.434 48.9913L141.607 48.6912L141.854 48.4357L142.162 48.2525L142.501 48.1525L142.842 48.1238L143.023 48.1334L143.191 48.159L143.354 48.2002L143.513 48.2549L143.666 48.323L143.814 48.402L143.956 48.4918L144.095 48.5919L144.229 48.7022L144.357 48.8205L144.481 48.9475L144.601 49.0835L144.717 49.2277L144.828 49.3794L144.934 49.5391L145.037 49.707L145.135 49.8827L145.228 50.0654L145.316 50.2555L145.399 50.4522L145.477 50.6567L145.549 50.8677L145.616 51.0851L145.677 51.3094L145.731 51.5405L145.78 51.7771L145.821 52.02L145.856 52.2689L145.883 52.5238L145.903 52.7838L145.915 53.0493L145.919 53.3225L145.909 53.7748L145.878 54.2081L145.827 54.6209L145.754 55.0124L145.66 55.3834L145.544 55.7327L145.404 56.0601L145.24 56.3645L145.049 56.6444L144.832 56.8968L144.587 57.1186L144.316 57.3052L144.022 57.4534L143.708 57.5596L143.381 57.6227L143.051 57.6428L142.675 57.6285L142.338 57.5789L142.014 57.4752L141.712 57.2898L141.475 57.0202L141.335 56.7099L141.273 56.4041L141.259 56.1198Z" fill="url(#paint5_linear_234_517)"></path><defs><linearGradient id="paint0_linear_234_517" x1="6.99624" y1="89.3568" x2="39.3483" y2="31.6735" gradientUnits="userSpaceOnUse"><stop stop-color="#BC3908"></stop><stop offset="1" stop-color="#F6AA1C"></stop></linearGradient><linearGradient id="paint1_linear_234_517" x1="20.7754" y1="-11.9541" x2="53.6273" y2="71.8627" gradientUnits="userSpaceOnUse"><stop stop-color="#BC3908"></stop><stop offset="1" stop-color="#F6AA1C"></stop></linearGradient><linearGradient id="paint2_linear_234_517" x1="46.614" y1="66.927" x2="46.614" y2="40.934" gradientUnits="userSpaceOnUse"><stop stop-color="white"></stop><stop offset="1" stop-color="#B7B7B7"></stop></linearGradient><linearGradient id="paint3_linear_234_517" x1="30.9773" y1="58.9558" x2="30.9773" y2="0.436314" gradientUnits="userSpaceOnUse"><stop stop-color="white"></stop><stop offset="1" stop-color="#B7B7B7"></stop></linearGradient><linearGradient id="paint4_linear_234_517" x1="84.4966" y1="16.7072" x2="254.078" y2="64.7877" gradientUnits="userSpaceOnUse"><stop stop-color="white"></stop><stop offset="1" stop-color="#B7B7B7"></stop></linearGradient><linearGradient id="paint5_linear_234_517" x1="124.189" y1="-8.39437" x2="132.311" y2="92.0189" gradientUnits="userSpaceOnUse"><stop stop-color="#BC3908"></stop><stop offset="1" stop-color="#F6AA1C"></stop></linearGradient></defs></svg>